<svg width="21" height="21" viewBox="0 0 21 21" fill="none" xmlns="http://www.w3.org/2000/svg">
<g id="066-gear" clip-path="url(#clip0_436_10916)">
<g id="Group">
<g id="Group_2">
<path id="Vector" d="M17.7726 13.4674C17.8668 13.2477 18.0822 13.1051 18.3179 13.1042H18.3968C19.8322 13.1042 21 11.9364 21 10.501C21 9.06565 19.8322 7.89786 18.3968 7.89786H18.2511C18.0488 7.89704 17.8635 7.79483 17.7542 7.63028C17.7421 7.57052 17.7236 7.51207 17.6989 7.45596C17.5998 7.23161 17.6459 6.9735 17.8162 6.79734L17.8627 6.75083C17.864 6.7496 17.8653 6.74833 17.8665 6.74705C18.3579 6.25512 18.6284 5.60125 18.6279 4.90591C18.6275 4.21177 18.3573 3.55926 17.8669 3.06814C17.8656 3.06683 17.8643 3.06555 17.8631 3.06424C17.3715 2.57316 16.7182 2.30283 16.0234 2.30283C16.0229 2.30283 16.0224 2.30283 16.0219 2.30283C15.3266 2.3032 14.673 2.57435 14.182 3.06596L14.1334 3.11461C13.9572 3.28486 13.6991 3.33096 13.4747 3.23195C13.472 3.23076 13.4692 3.22953 13.4664 3.22834C13.2467 3.13417 13.104 2.9188 13.1031 2.68313V2.60413C13.1031 1.1688 11.9353 0.00100708 10.4999 0.00100708C9.06456 0.00100708 7.89682 1.1688 7.89682 2.60413V2.74994C7.896 2.95223 7.79379 3.13749 7.62923 3.24676C7.56947 3.25886 7.51102 3.2774 7.45492 3.30213C7.2306 3.40118 6.97245 3.35508 6.79629 3.18479L6.74601 3.13446C6.25435 2.64338 5.60118 2.37305 4.90638 2.37305C4.90589 2.37305 4.90532 2.37305 4.90487 2.37305C4.20953 2.37342 3.55595 2.64457 3.06319 3.1379C2.57179 3.6298 2.30137 4.28367 2.30178 4.979C2.30215 5.67434 2.57331 6.32788 3.06492 6.81891L3.11352 6.86752C3.28381 7.04368 3.32992 7.30175 3.23091 7.52614C3.22365 7.54251 3.217 7.55908 3.21081 7.57585C3.12615 7.80595 2.91447 7.95918 2.67006 7.968H2.60308C1.16779 7.968 0 9.13579 0 10.5711C0 12.0065 1.16779 13.1743 2.60321 13.1742H2.74897C2.98809 13.1752 3.20338 13.3178 3.29756 13.5375C3.29874 13.5403 3.29997 13.5431 3.30116 13.5458C3.40022 13.7702 3.35412 14.0283 3.18378 14.2045L3.13518 14.2531C3.13407 14.2542 3.13296 14.2554 3.13181 14.2565C2.64147 14.7482 2.37167 15.4014 2.37204 16.0959C2.37241 16.7913 2.64356 17.4449 3.1355 17.9362C3.13669 17.9374 3.13792 17.9387 3.13915 17.9399C4.15486 18.9521 5.80458 18.9504 6.81791 17.9359L6.86655 17.8872C7.04267 17.717 7.30078 17.6708 7.52513 17.7699C7.54146 17.7771 7.55803 17.7838 7.5748 17.79C7.80494 17.8746 7.95813 18.0863 7.96699 18.3307V18.3977C7.96699 19.8331 9.13478 21.0008 10.5701 21.0008C12.0055 21.0008 13.1733 19.8331 13.1733 18.3978V18.252C13.1743 18.0129 13.3169 17.7976 13.5366 17.7034C13.5394 17.7022 13.5422 17.701 13.5449 17.6998C13.7693 17.6007 14.0274 17.6468 14.2036 17.8171L14.2539 17.8674C14.7455 18.3585 15.3987 18.6289 16.0935 18.6288C16.094 18.6288 16.0946 18.6288 16.0951 18.6288C16.7904 18.6284 17.444 18.3573 17.9367 17.864C18.9511 16.8485 18.9502 15.197 17.935 14.1829L17.8864 14.1343C17.7161 13.9582 17.67 13.7001 17.7691 13.4757C17.7703 13.473 17.7715 13.4702 17.7726 13.4674ZM16.676 15.3234C16.6782 15.3256 16.6804 15.3278 16.6826 15.33L16.7355 15.383C17.0891 15.7363 17.0895 16.3114 16.7349 16.6664C16.5637 16.8378 16.3361 16.9322 16.0939 16.9323C16.0937 16.9323 16.0936 16.9323 16.0934 16.9323C15.8514 16.9323 15.6239 16.8382 15.4517 16.6661L15.3991 16.6135C15.3968 16.6113 15.3946 16.6091 15.3924 16.6069C14.7185 15.9477 13.7264 15.7671 12.8637 16.146C12.0246 16.5077 11.4803 17.3312 11.4766 18.2486V18.3978C11.4766 18.8977 11.0699 19.3043 10.57 19.3043C10.0702 19.3043 9.66351 18.8976 9.66351 18.3978V18.3188C9.66351 18.3122 9.66343 18.3056 9.66327 18.299C9.64128 17.3592 9.06223 16.541 8.18556 16.2072C7.32769 15.8401 6.34594 16.0232 5.67747 16.677C5.67526 16.6792 5.67304 16.6814 5.67083 16.6836L5.61784 16.7366C5.26461 17.0902 4.68945 17.0906 4.33578 16.7373C4.33475 16.7363 4.33369 16.7353 4.3327 16.7343C4.16245 16.5633 4.06869 16.3365 4.06852 16.0951C4.06836 15.853 4.16257 15.6253 4.33369 15.454C4.33467 15.453 4.33561 15.452 4.3366 15.4511L4.38737 15.4002C4.38959 15.398 4.3918 15.3958 4.39398 15.3935C5.05305 14.7198 5.23373 13.7277 4.85495 12.865C4.49328 12.0258 3.66973 11.4815 2.75221 11.4778H2.60304C2.10319 11.4778 1.69652 11.0711 1.69652 10.5712C1.69652 10.0714 2.10323 9.66468 2.60304 9.66464H2.68204C2.68864 9.66464 2.69529 9.66456 2.70189 9.6644C3.64176 9.64241 4.45993 9.06336 4.79371 8.18669C5.16072 7.32882 4.97771 6.34715 4.32384 5.67868C4.32167 5.67647 4.31945 5.67425 4.31724 5.67204L4.26429 5.61905C4.09297 5.44789 3.99855 5.2203 3.99843 4.97814C3.99826 4.73603 4.09247 4.50831 4.26499 4.3356C4.43614 4.16427 4.66374 4.06986 4.90589 4.06973C4.9061 4.06973 4.90622 4.06973 4.90642 4.06973C5.14842 4.06973 5.37593 4.1639 5.54815 4.33596L5.60082 4.38859C5.60299 4.3908 5.60525 4.39302 5.60746 4.39519C6.23979 5.0137 7.15239 5.2109 7.97544 4.91974C8.05321 4.90977 8.12945 4.88906 8.20189 4.85801C9.04356 4.49728 9.58981 3.6725 9.59346 2.75343V2.60425C9.59346 2.1044 10.0001 1.69773 10.5 1.69773C10.9998 1.69773 11.4065 2.10444 11.4065 2.60429V2.68665C11.4102 3.60076 11.9545 4.42431 12.7937 4.78603C13.6565 5.16493 14.6485 4.98413 15.3223 4.32505C15.3245 4.32288 15.3268 4.32067 15.329 4.31845L15.382 4.2655C15.5531 4.09418 15.7808 3.99976 16.0229 3.99964C16.0231 3.99964 16.0232 3.99964 16.0234 3.99964C16.2646 3.99964 16.4915 4.09324 16.6625 4.26329C16.6635 4.26427 16.6645 4.26521 16.6654 4.2662C16.8368 4.43735 16.9312 4.66495 16.9313 4.9071C16.9315 5.1486 16.8378 5.37566 16.6676 5.54682C16.6668 5.54764 16.6659 5.54846 16.6651 5.54932L16.6125 5.60199C16.6102 5.60416 16.6081 5.60637 16.6059 5.60863C15.9873 6.24096 15.7901 7.1536 16.0813 7.97661C16.0913 8.05442 16.112 8.13067 16.1431 8.2031C16.5038 9.04478 17.3286 9.59102 18.2477 9.59467H18.3968C18.8967 9.59467 19.3034 10.0013 19.3034 10.5012C19.3034 11.001 18.8967 11.4078 18.3968 11.4078H18.3145C17.4004 11.4114 16.5769 11.9557 16.2151 12.7949C15.8362 13.6574 16.017 14.6496 16.676 15.3234Z" fill="#EEE5FF"/>
</g>
</g>
<g id="Group_3">
<g id="Group_4">
<path id="Vector_2" d="M10.4991 7.01947C8.57997 7.01947 7.01855 8.58084 7.01855 10.5C7.01855 12.4192 8.57993 13.9806 10.4991 13.9806C12.4183 13.9806 13.9797 12.4192 13.9797 10.5C13.9797 8.58084 12.4183 7.01947 10.4991 7.01947ZM10.4991 12.284C9.51545 12.284 8.71516 11.4837 8.71516 10.5C8.71516 9.51632 9.51545 8.71603 10.4991 8.71603C11.4828 8.71603 12.2831 9.51632 12.2831 10.5C12.2831 11.4837 11.4828 12.284 10.4991 12.284Z" fill="#EEE5FF"/>
</g>
</g>
</g>
<defs>
<clipPath id="clip0_436_10916">
<rect width="21" height="21" fill="white"/>
</clipPath>
</defs>
</svg>
