<svg width="21" height="21" viewBox="0 0 21 21" fill="none" xmlns="http://www.w3.org/2000/svg">
<g id="114-medical-records-1">
<g id="Group">
<path id="Vector" d="M18.5677 5.58826L13.963 0.313561C13.7826 0.0902025 13.5593 0 13.293 0H3.10437C2.6147 0 2.21094 0.403764 2.21094 0.893434V20.1066C2.21094 20.5962 2.6147 21 3.10437 21H17.9405C18.4302 21 18.791 20.5962 18.791 20.1495V6.16813C18.791 5.94477 18.7008 5.76437 18.5677 5.58826ZM14.1864 3.22152L16.5746 5.94477H14.1864V3.22152ZM12.3995 1.74391V6.79525C12.3995 7.28493 12.8033 7.68869 13.293 7.68869H17.0471V11.6189H14.2766C13.9201 11.6189 13.6065 11.8423 13.4734 12.1559L13.1598 12.8259L12.6229 12.0657C12.4897 11.7993 12.2191 11.6619 11.9099 11.6619H9.67627C9.31975 11.6619 9.00619 11.8853 8.87304 12.2418L8.78283 12.4222L8.15571 9.2479C8.0784 8.70239 7.1463 8.0452 6.502 9.02455L4.93849 12.289H3.95485V1.74391H12.3995ZM3.99781 19.2604H3.95485V14.0759H5.47541C5.83192 14.0759 6.14548 13.8955 6.27864 13.5862L6.94872 12.1988L7.66175 15.8628C8.0741 16.9753 9.1823 16.6445 9.35841 15.953L10.2948 13.4058H11.4545L12.5713 15.1025C13.2156 15.9057 14.0146 15.3688 14.0919 15.0123L14.8049 13.4015H17.0385V19.2561H3.99781V19.2604Z" fill="#EEE5FF"/>
</g>
</g>
</svg>
