<svg width="21" height="21" viewBox="0 0 21 21" fill="none" xmlns="http://www.w3.org/2000/svg">
<g id="122-attention">
<g id="Group">
<g id="Attention">
<g id="Group_2">
<path id="Vector" d="M20.7673 17.2107L12.0173 2.04402C11.7145 1.52019 11.1481 1.16669 10.5 1.16669C9.85192 1.16669 9.2855 1.52019 8.98275 2.04402L0.23275 17.2107C0.0851667 17.4674 0 17.7654 0 18.0834C0 19.0494 0.784 19.8334 1.75 19.8334H19.25C20.216 19.8334 21 19.0494 21 18.0834C21 17.7654 20.9154 17.4674 20.7673 17.2107ZM1.74883 18.0851L10.4983 2.91669H10.5L10.5012 2.91844L19.25 18.0834L1.74883 18.0851ZM10.5 14C9.856 14 9.33333 14.5227 9.33333 15.1667C9.33333 15.8113 9.85542 16.3334 10.5 16.3334C11.1446 16.3334 11.6667 15.8107 11.6667 15.1667C11.6667 14.5227 11.1446 14 10.5 14ZM9.33333 8.75002C9.33333 8.81652 9.33917 8.88244 9.34967 8.94602L9.92425 12.3481C9.9715 12.6239 10.2113 12.8334 10.5 12.8334C10.7888 12.8334 11.0285 12.6239 11.0752 12.348L11.6497 8.94599C11.6608 8.88244 11.6667 8.81652 11.6667 8.75002C11.6667 8.10602 11.1446 7.58335 10.5 7.58335C9.856 7.58335 9.33333 8.10602 9.33333 8.75002Z" fill="#EEE5FF"/>
</g>
</g>
</g>
</g>
</svg>
