<svg width="21" height="21" viewBox="0 0 21 21" fill="none" xmlns="http://www.w3.org/2000/svg">
<g id="156-analytics-2" clip-path="url(#clip0_436_10923)">
<path id="Vector" d="M18.375 0H2.625C1.17728 0 0 1.17728 0 2.625V14C0 15.4477 1.17728 16.625 2.625 16.625H7.77396C7.55115 17.6282 6.95621 18.5194 6.08078 19.103L5.86032 19.25H4.375C3.892 19.25 3.5 19.642 3.5 20.125C3.5 20.608 3.892 21 4.375 21H16.625C17.108 21 17.5 20.608 17.5 20.125C17.5 19.642 17.108 19.25 16.625 19.25H15.1397L14.9192 19.103C14.0438 18.5194 13.4489 17.6282 13.226 16.625H18.375C19.8227 16.625 21 15.4477 21 14V2.625C21 1.17728 19.8227 0 18.375 0ZM12.5651 19.25H8.43491C9.0181 18.4857 9.40454 17.5872 9.55151 16.625H11.4489C11.5955 17.5872 11.9819 18.4857 12.5651 19.25ZM19.25 14C19.25 14.4826 18.8576 14.875 18.375 14.875H2.625C2.14243 14.875 1.75 14.4826 1.75 14V2.625C1.75 2.14243 2.14243 1.75 2.625 1.75H18.375C18.8576 1.75 19.25 2.14243 19.25 2.625V14Z" fill="#EEE5FF"/>
<path id="Vector_2" d="M15.1302 5.06884L11.8114 8.38769L10.2425 6.81884C9.90115 6.47726 9.34658 6.47726 9.00521 6.81884L4.63021 11.1938C4.28863 11.5356 4.28863 12.0893 4.63021 12.4311C4.8009 12.6023 5.02477 12.6875 5.24886 12.6875C5.47295 12.6875 5.69683 12.6023 5.86752 12.4311L9.62386 8.6748L11.1927 10.2436C11.5341 10.5852 12.0886 10.5852 12.43 10.2436L16.3675 6.30614C16.7091 5.96435 16.7091 5.41064 16.3675 5.06884C16.0261 4.72726 15.4716 4.72726 15.1302 5.06884Z" fill="#EEE5FF"/>
</g>
<defs>
<clipPath id="clip0_436_10923">
<rect width="21" height="21" fill="white"/>
</clipPath>
</defs>
</svg>
