<svg width="21" height="21" viewBox="0 0 21 21" fill="none" xmlns="http://www.w3.org/2000/svg">
<g id="164-protection" clip-path="url(#clip0_436_10949)">
<path id="Vector" d="M10.6015 20.1404C10.6015 20.5926 10.2351 20.9591 9.78282 20.9591H5.36195C3.5563 20.9591 2.08726 19.4899 2.08726 17.6843V9.75595L1.43758 10.4043C1.27769 10.5639 1.06844 10.6435 0.859198 10.6435C0.649474 10.6435 0.439589 10.5634 0.279692 10.4032C-0.039621 10.0833 -0.0391403 9.56481 0.280814 9.24549L8.88897 0.654323C8.90002 0.643429 8.91124 0.632694 8.92294 0.62228C9.8578 -0.210049 11.2655 -0.207005 12.197 0.629169C12.2087 0.639904 12.2202 0.650799 12.2314 0.662174L18.3876 6.87444C18.7058 7.19567 18.7034 7.71398 18.3823 8.03217C18.0611 8.35036 17.5428 8.34812 17.2244 8.02688L11.0881 1.83448C10.7824 1.57301 10.3328 1.57221 10.0264 1.83256L3.7234 8.12301C3.72356 8.13086 3.72452 8.13871 3.72452 8.14656V17.6843C3.72452 18.5871 4.45912 19.3217 5.36195 19.3217H9.78282C10.2351 19.3217 10.6015 19.6883 10.6015 20.1404ZM20.9988 12.1172V15.335C20.9988 16.7198 20.4523 18.1335 19.4994 19.2139C18.4833 20.3657 17.1549 21 15.7592 21C14.3636 21 13.0354 20.3657 12.0193 19.2139C11.0663 18.1335 10.5197 16.7198 10.5197 15.335V12.1172C10.5197 11.8056 10.6967 11.5209 10.9763 11.383L15.3755 9.21345C15.4882 9.15786 15.612 9.12902 15.7376 9.12902H15.7809C15.9065 9.12902 16.0305 9.15786 16.1431 9.21345L20.5422 11.383C20.822 11.5209 20.9988 11.8056 20.9988 12.1172ZM19.3616 12.6264L15.7592 10.8499L12.1571 12.6264V15.3349C12.1571 17.4429 13.874 19.3626 15.7592 19.3626C17.6445 19.3626 19.3616 17.4429 19.3616 15.3349V12.6264Z" fill="#8950FC"/>
</g>
<defs>
<clipPath id="clip0_436_10949">
<rect width="21" height="21" fill="white"/>
</clipPath>
</defs>
</svg>
