<svg width="21" height="21" viewBox="0 0 21 21" fill="none" xmlns="http://www.w3.org/2000/svg">
<g id="165-calendar-6" clip-path="url(#clip0_436_10929)">
<g id="Group">
<path id="Vector" d="M20.1797 14.4375C20.6327 14.4375 21 14.0702 21 13.6172V4.92188C21 3.11259 19.528 1.64062 17.7188 1.64062H16.6523V0.820312C16.6523 0.367254 16.2851 0 15.832 0C15.379 0 15.0117 0.367254 15.0117 0.820312V1.64062H11.2793V0.820312C11.2793 0.367254 10.912 0 10.459 0C10.0059 0 9.63867 0.367254 9.63867 0.820312V1.64062H5.94727V0.820312C5.94727 0.367254 5.58001 0 5.12695 0C4.67389 0 4.30664 0.367254 4.30664 0.820312V1.64062H3.28125C1.47197 1.64062 0 3.11259 0 4.92188V17.7188C0 19.528 1.47197 21 3.28125 21H17.7188C19.528 21 21 19.528 21 17.7188C21 17.2657 20.6327 16.8984 20.1797 16.8984C19.7266 16.8984 19.3594 17.2657 19.3594 17.7188C19.3594 18.6234 18.6234 19.3594 17.7188 19.3594H3.28125C2.37661 19.3594 1.64062 18.6234 1.64062 17.7188V4.92188C1.64062 4.01723 2.37661 3.28125 3.28125 3.28125H4.30664V4.10156C4.30664 4.55462 4.67389 4.92188 5.12695 4.92188C5.58001 4.92188 5.94727 4.55462 5.94727 4.10156V3.28125H9.63867V4.10156C9.63867 4.55462 10.0059 4.92188 10.459 4.92188C10.912 4.92188 11.2793 4.55462 11.2793 4.10156V3.28125H15.0117V4.10156C15.0117 4.55462 15.379 4.92188 15.832 4.92188C16.2851 4.92188 16.6523 4.55462 16.6523 4.10156V3.28125H17.7188C18.6234 3.28125 19.3594 4.01723 19.3594 4.92188V13.6172C19.3594 14.0702 19.7266 14.4375 20.1797 14.4375Z" fill="#EEE5FF"/>
<path id="Vector_2" d="M10.459 16.0371C10.912 16.0371 11.2793 15.6699 11.2793 15.2168V12.9609H13.5352C13.9882 12.9609 14.3555 12.5937 14.3555 12.1406C14.3555 11.6876 13.9882 11.3203 13.5352 11.3203H11.2793V9.06445C11.2793 8.61139 10.912 8.24414 10.459 8.24414C10.0059 8.24414 9.63867 8.61139 9.63867 9.06445V11.3203H7.38281C6.92975 11.3203 6.5625 11.6876 6.5625 12.1406C6.5625 12.5937 6.92975 12.9609 7.38281 12.9609H9.63867V15.2168C9.63867 15.6699 10.0059 16.0371 10.459 16.0371Z" fill="#EEE5FF"/>
</g>
</g>
<defs>
<clipPath id="clip0_436_10929">
<rect width="21" height="21" fill="white"/>
</clipPath>
</defs>
</svg>
