<svg width="21" height="21" viewBox="0 0 21 21" fill="none" xmlns="http://www.w3.org/2000/svg">
<g id="169-hourglass-1">
<g id="Group">
<path id="Vector" d="M13.7044 9.88079C13.8999 9.7107 14.1236 9.52276 14.3603 9.32375C16.1065 7.85585 18.498 5.84551 18.498 3.73242V2.46094C18.498 1.10398 17.3941 0 16.0371 0H4.96289C3.60593 0 2.50195 1.10398 2.50195 2.46094V3.73242C2.50195 5.84551 4.89353 7.85585 6.63973 9.32375C6.87643 9.52276 7.10005 9.7107 7.29553 9.88079C7.48133 10.0424 7.58789 10.2681 7.58789 10.5C7.58789 10.7319 7.48133 10.9576 7.29557 11.1192C7.10009 11.2893 6.87643 11.4772 6.63973 11.6762C4.89353 13.1442 2.50195 15.1545 2.50195 17.2676V18.5391C2.50195 19.896 3.60593 21 4.96289 21H16.0371C17.3941 21 18.498 19.896 18.498 18.5391C18.498 18.086 18.1308 17.7188 17.6777 17.7188C17.2247 17.7188 16.8574 18.086 16.8574 18.5391C16.8574 18.9914 16.4894 19.3594 16.0371 19.3594H4.96289C4.51057 19.3594 4.14258 18.9914 4.14258 18.5391V17.2676C4.14258 15.9187 6.36661 14.0491 7.69543 12.9321C7.93759 12.7285 8.16642 12.5362 8.37244 12.3569C8.91651 11.8836 9.22852 11.2067 9.22852 10.5C9.22852 9.79322 8.91651 9.11638 8.3724 8.64302C8.16638 8.46382 7.93759 8.2715 7.69543 8.0679C6.36661 6.95088 4.14258 5.08134 4.14258 3.73242V2.46094C4.14258 2.00862 4.51057 1.64062 4.96289 1.64062H16.0371C16.4894 1.64062 16.8574 2.00862 16.8574 2.46094V3.73242C16.8574 5.08134 14.6334 6.95088 13.3046 8.0679C13.0624 8.27146 12.8336 8.46378 12.6276 8.64302C12.0835 9.11638 11.7715 9.79322 11.7715 10.5C11.7715 11.2068 12.0835 11.8836 12.6276 12.3569C12.8423 12.5437 13.0816 12.744 13.3349 12.9561C14.1329 13.624 15.0374 14.3811 15.7514 15.1867C16.0518 15.5256 16.5702 15.557 16.9093 15.2565C17.2484 14.956 17.2796 14.4375 16.9792 14.0985C16.1841 13.2015 15.1882 12.3679 14.3879 11.698C14.1408 11.4911 13.9073 11.2957 13.7045 11.1192C13.5187 10.9575 13.4121 10.7319 13.4121 10.5C13.4121 10.2681 13.5187 10.0424 13.7044 9.88079Z" fill="#EEE5FF"/>
<path id="Vector_2" d="M11.3502 13.7266C10.8612 13.3072 10.1398 13.3072 9.65087 13.7266C9.62064 13.7525 7.27217 15.7342 6.64824 16.4013C6.64135 16.4087 6.63446 16.416 6.62769 16.4233C6.2127 16.8698 6.53082 17.5957 7.14055 17.5957H13.8604C14.4701 17.5957 14.7882 16.8698 14.3733 16.4233C14.3665 16.416 14.3597 16.4087 14.3528 16.4013C13.7289 15.7342 11.3804 13.7526 11.3502 13.7266Z" fill="#EEE5FF"/>
</g>
</g>
</svg>
