<svg height="54" width="10" xmlns="http://www.w3.org/2000/svg"><path d="m0 0h10v54h-10z" fill="none"/><path d="m10 20.03c-.01-.25-.02-.43-.05-.59-.07-.36-.23-.67-.47-.91s-.55-.4-.91-.47c-.17-.03-.35-.05-.6-.06h-5.94c-.25.01-.43.02-.59.05-.36.07-.67.23-.91.47s-.4.55-.47.91c-.03.17-.05.35-.06.6v27.95c.01.25.02.43.05.59.07.36.23.67.47.91s.55.4.91.47c.17.02.35.04.6.05h5.94c.25-.01.43-.02.59-.05.36-.07.67-.23.91-.47s.4-.55.47-.91c.03-.16.05-.34.05-.59v-27.16c.01-.38.01-.59.01-.79zm-5.95 19.3c-.32.32-.74.5-1.2.5-.45 0-.88-.18-1.2-.5s-.5-.74-.5-1.2c0-.45.18-.88.5-1.2s.74-.5 1.2-.5c.45 0 .88.18 1.2.5s.5.74.5 1.2c-.01.46-.18.88-.5 1.2zm0-4.13c-.32.32-.74.5-1.2.5-.45 0-.88-.18-1.2-.5s-.5-.74-.5-1.2c0-.45.18-.88.5-1.2s.74-.5 1.2-.5c.45 0 .88.18 1.2.5s.5.74.5 1.2c-.01.45-.18.88-.5 1.2zm0-4.14c-.32.32-.74.5-1.2.5-.45 0-.88-.18-1.2-.5s-.5-.74-.5-1.2c0-.45.18-.88.5-1.2s.74-.5 1.2-.5c.45 0 .88.18 1.2.5s.5.74.5 1.2c-.01.45-.18.88-.5 1.2zm4.65 6.58c0 .38 0 .62-.06.88-.05.26-.14.48-.28.68a1.488 1.488 0 0 1 -2.42 0c-.15-.2-.24-.42-.29-.68s-.06-.51-.06-.88v-3.14c0-.38 0-.62.06-.88.05-.26.15-.48.29-.68a1.488 1.488 0 0 1 2.42 0c.14.19.24.42.29.68s.05.5.05.88zm-.36-6.58c-.32.32-.74.5-1.2.5-.45 0-.88-.18-1.2-.5s-.5-.74-.5-1.2.18-.88.5-1.2.74-.5 1.2-.5c.45 0 .88.18 1.2.5s.5.74.5 1.2-.18.88-.5 1.2z" fill="#1d1d1f"/></svg>