<svg width="29" height="27" viewBox="0 0 29 27" fill="none" xmlns="http://www.w3.org/2000/svg">
<g id="Cart#3">
<path id="Path 30" opacity="0.3" d="M14.8683 5.45552L9.97041 11.0442C9.56119 11.5112 8.83137 11.5743 8.34031 11.1851C7.84925 10.796 7.7829 10.1021 8.19212 9.63513L13.9791 3.03187C14.4419 2.50388 15.2947 2.50388 15.7574 3.03187L21.5445 9.63513C21.9537 10.1021 21.8873 10.796 21.3963 11.1851C20.9052 11.5743 20.1754 11.5112 19.7662 11.0442L14.8683 5.45552Z" fill="#B5B5C3"/>
<path id="Combined Shape" fill-rule="evenodd" clip-rule="evenodd" d="M6.57389 10.3397C5.8488 10.3397 5.36475 11.0872 5.66144 11.7488L9.44401 20.184C9.92764 21.2625 10.9994 21.9565 12.1814 21.9565H17.5554C18.7374 21.9565 19.8093 21.2624 20.2928 20.1838L24.0746 11.7488C24.3712 11.0872 23.8871 10.3397 23.1621 10.3397H6.57389ZM17.1832 16.9429C17.1832 18.1585 16.1468 19.144 14.8684 19.144C13.5899 19.144 12.5536 18.1585 12.5536 16.9429C12.5536 15.7273 13.5899 14.7418 14.8684 14.7418C16.1468 14.7418 17.1832 15.7273 17.1832 16.9429Z" fill="#B5B5C3"/>
</g>
</svg>
